HIERARCHY
ROOT Hips
{
	OFFSET -0.001795 -0.223333 0.028219
	CHANNELS 6 Xposition Yposition Zposition Zrotation Yrotation Xrotation 
	JOINT LeftUpLeg
	{
		OFFSET 0.069520 -0.091406 -0.006815
		CHANNELS 3 Zrotation Yrotation Xrotation
		JOINT LeftLeg
		{
			OFFSET 0.034277 -0.375199 -0.004496
			CHANNELS 3 Zrotation Yrotation Xrotation
			JOINT LeftFoot
			{
				OFFSET -0.013596 -0.397961 -0.043693
				CHANNELS 3 Zrotation Yrotation Xrotation
				JOINT LeftToe
				{
					OFFSET 0.026358 -0.055791 0.119288
					CHANNELS 3 Zrotation Yrotation Xrotation
					End Site
					{
						OFFSET 0.000000 0.000000 0.000000
					}
				}
			}
		}
	}
	JOINT RightUpLeg
	{
		OFFSET -0.067670 -0.090522 -0.004320
		CHANNELS 3 Zrotation Yrotation Xrotation
		JOINT RightLeg
		{
			OFFSET -0.038290 -0.382569 -0.008850
			CHANNELS 3 Zrotation Yrotation Xrotation
			JOINT RightFoot
			{
				OFFSET 0.015774 -0.398415 -0.042312
				CHANNELS 3 Zrotation Yrotation Xrotation
				JOINT RightToe
				{
					OFFSET -0.025372 -0.048144 0.123348
					CHANNELS 3 Zrotation Yrotation Xrotation
					End Site
					{
						OFFSET 0.000000 0.000000 0.000000
					}
				}
			}
		}
	}
	JOINT Spine
	{
		OFFSET -0.002533 0.108963 -0.026696
		CHANNELS 3 Zrotation Yrotation Xrotation
		JOINT Spine1
		{
			OFFSET 0.005487 0.135180 0.001092
			CHANNELS 3 Zrotation Yrotation Xrotation
			JOINT Spine2
			{
				OFFSET 0.001457 0.052922 0.025425
				CHANNELS 3 Zrotation Yrotation Xrotation
				JOINT Neck
				{
					OFFSET -0.002778 0.213870 -0.042857
					CHANNELS 3 Zrotation Yrotation Xrotation
					JOINT Head
					{
						OFFSET 0.005152 0.064970 0.051349
						CHANNELS 3 Zrotation Yrotation Xrotation
						End Site
						{
							OFFSET 0.000000 0.000000 0.000000
						}
					}
				}
				JOINT LeftShoulder
				{
					OFFSET 0.078845 0.121749 -0.034090
					CHANNELS 3 Zrotation Yrotation Xrotation
					JOINT LeftArm
					{
						OFFSET 0.090977 0.030469 -0.008868
						CHANNELS 3 Zrotation Yrotation Xrotation
						JOINT LeftForeArm
						{
							OFFSET 0.259612 -0.012772 -0.027456
							CHANNELS 3 Zrotation Yrotation Xrotation
							JOINT LeftHand
							{
								OFFSET 0.249234 0.008986 -0.001171
								CHANNELS 3 Zrotation Yrotation Xrotation
								End Site
								{
									OFFSET 0.000000 0.000000 0.000000
								}
							}
						}
					}
				}
				JOINT RightShoulder
				{
					OFFSET -0.081759 0.118833 -0.038615
					CHANNELS 3 Zrotation Yrotation Xrotation
					JOINT RightArm
					{
						OFFSET -0.096012 0.032551 -0.009143
						CHANNELS 3 Zrotation Yrotation Xrotation
						JOINT RightForeArm
						{
							OFFSET -0.253742 -0.013329 -0.021401
							CHANNELS 3 Zrotation Yrotation Xrotation
							JOINT RightHand
							{
								OFFSET -0.255298 0.007772 -0.005559
								CHANNELS 3 Zrotation Yrotation Xrotation
								End Site
								{
									OFFSET 0.000000 0.000000 0.000000
								}
							}
						}
					}
				}
			}
		}
	}
}
MOTION
Frames: 14
Frame Time: 0.050000
0.000000 0.896158 0.000000 -2.320001 -2.581779 5.461674 8.631905 -0.266182 -7.359672 -8.792093 3.641384 41.950050 8.859752 18.358948 1.921876 0.000000 0.000000 0.000000 -2.929633 2.190023 -25.706647 8.119691 -1.523314 27.923663 -7.305459 -17.732346 -5.027295 0.000000 0.000000 0.000000 8.969983 -2.196189 16.763456 -3.933175 1.470418 -24.234494 -1.977946 3.251610 26.092156 9.591461 -2.428507 -34.031696 0.000000 0.000000 0.000000 -23.292431 -8.869864 3.440557 -44.855588 -9.692931 -3.843743 -12.212107 -37.745421 6.021655 0.000000 0.000000 0.000000 25.637196 -0.161042 -1.210248 48.952730 9.861357 -3.230661 13.459986 34.144596 5.728203 0.000000 0.000000 0.000000 
-0.006360 0.903420 0.031361 -2.269351 -3.671117 6.031504 10.241938 -0.143506 -12.238982 -11.734761 5.872324 45.123148 10.153972 20.727003 3.852155 0.000000 0.000000 0.000000 -1.667498 2.243537 -23.394394 6.981353 -0.991549 26.988073 -7.037003 -16.937223 -4.668484 0.000000 0.000000 0.000000 8.553495 -2.094458 16.650638 -2.286062 1.070573 -24.790808 -2.341336 5.406598 26.648980 10.466236 -2.484908 -34.920142 0.000000 0.000000 0.000000 -24.344511 -7.203963 1.944125 -44.783547 -9.032693 -3.992859 -14.102183 -37.879449 6.617914 0.000000 0.000000 0.000000 24.579040 -0.419473 -0.790207 48.584717 10.850724 -2.998151 14.682238 36.122105 6.663324 0.000000 0.000000 0.000000 
-0.010524 0.909951 0.062139 -1.548462 -3.912078 4.461200 10.899250 0.035632 -16.853984 -14.250529 7.532746 46.473283 12.171727 24.334732 3.054071 0.000000 0.000000 0.000000 -1.977371 1.654287 -17.921127 6.602375 -0.832913 23.963668 -6.823435 -15.982246 -5.945779 0.000000 0.000000 0.000000 8.340863 -2.168240 18.263813 -3.822924 1.427160 -25.749157 -0.683299 6.611902 27.504945 9.912680 -2.114136 -34.916029 0.000000 0.000000 0.000000 -24.838639 -8.147531 2.125128 -43.454632 -9.723439 -3.623404 -15.141009 -37.200839 6.708734 0.000000 0.000000 0.000000 23.535339 -1.407227 -0.936054 48.929275 12.853910 -2.433049 13.354469 34.901416 6.141992 0.000000 0.000000 0.000000 
-0.012520 0.915969 0.092558 -1.059709 -4.135985 4.703838 10.968294 0.144498 -21.472311 -15.285194 7.321333 41.314362 12.722960 25.238640 3.574189 0.000000 0.000000 0.000000 -2.899913 1.312189 -15.151742 6.641482 -0.822823 21.529953 -6.912443 -16.357753 -4.666860 0.000000 0.000000 0.000000 8.272327 -2.197750 18.728670 -4.224945 1.510414 -26.210081 -1.232660 8.629968 27.813034 11.767443 -2.597096 -35.748628 0.000000 0.000000 0.000000 -24.064182 -8.496352 1.706161 -43.190369 -9.660482 -3.463363 -16.506597 -38.903352 7.334710 0.000000 0.000000 0.000000 24.638171 -1.820385 -0.603701 47.239549 15.631734 -1.608559 14.517557 36.371428 7.011673 0.000000 0.000000 0.000000 
-0.012767 0.917368 0.123036 -0.548028 -4.844160 4.400319 10.426116 0.179705 -25.156325 -14.485896 5.874667 33.746979 12.909429 25.525146 3.640031 0.000000 0.000000 0.000000 -3.486945 0.949653 -11.132356 6.029036 -0.613926 18.867947 -6.409022 -14.650810 -5.549992 0.000000 0.000000 0.000000 7.105416 -2.054465 19.996525 -4.383541 1.544476 -26.003257 -0.406290 10.004399 27.676067 12.318221 -2.619453 -36.342633 0.000000 0.000000 0.000000 -23.540915 -9.129316 1.770574 -43.004347 -9.819344 -3.309056 -18.001957 -40.291367 8.051716 0.000000 0.000000 0.000000 23.680917 -1.522394 -0.115017 46.509259 17.840067 -0.818967 14.398512 37.114125 7.196604 0.000000 0.000000 0.000000 
-0.011040 0.914245 0.154024 -0.663262 -5.423742 4.676206 10.300368 0.273871 -28.062265 -12.103912 3.775769 24.453427 12.163015 23.875134 6.377946 0.000000 0.000000 0.000000 -3.892831 0.752509 -8.588864 6.669400 -0.747324 17.668557 -6.403523 -14.432898 -5.919290 0.000000 0.000000 0.000000 7.027543 -2.086803 20.734723 -4.884610 1.642103 -26.080806 0.229794 11.242201 27.952257 11.426163 -1.785484 -38.012916 0.000000 0.000000 0.000000 -24.355461 -9.820671 1.793355 -42.484162 -10.439791 -2.957625 -18.050338 -41.331394 8.200728 0.000000 0.000000 0.000000 23.430759 -0.696747 0.697126 45.922725 20.422727 0.030476 12.095181 38.210697 6.739623 0.000000 0.000000 0.000000 
-0.007541 0.907215 0.186866 -1.028666 -6.727006 4.464455 10.484042 0.486713 -28.924260 -9.285649 2.026786 13.831531 11.430370 22.330815 8.641283 0.000000 0.000000 0.000000 -3.934023 0.568112 -5.848381 6.958329 -0.745312 18.108743 -6.564027 -13.892351 -8.616865 0.000000 0.000000 0.000000 6.992333 -2.101268 21.788801 -5.109828 1.675480 -26.107456 0.705913 12.751061 28.002552 12.173475 -1.829247 -39.219019 0.000000 0.000000 0.000000 -23.691648 -9.958747 1.655748 -42.960150 -10.559043 -2.896505 -18.067133 -42.710512 8.407148 0.000000 0.000000 0.000000 22.864394 0.001736 1.326952 45.111892 23.253018 1.017564 11.080486 38.383973 6.443824 0.000000 0.000000 0.000000 
-0.001833 0.896490 0.223310 -1.036599 -7.847925 3.910880 10.099087 0.563436 -30.032865 -6.749882 1.076519 6.341881 8.930760 18.035341 11.582622 0.000000 0.000000 0.000000 -4.491160 0.385400 -2.805025 6.623421 -0.594101 18.980905 -6.572599 -12.602587 -11.545367 0.000000 0.000000 0.000000 6.825416 -1.997958 21.808279 -5.734762 1.815900 -25.452794 1.261697 14.241935 28.435258 13.142398 -2.270268 -38.571104 0.000000 0.000000 0.000000 -23.662890 -11.814914 2.485679 -43.003455 -11.698277 -2.480247 -14.996010 -43.444039 7.248283 0.000000 0.000000 0.000000 23.131254 1.546729 2.527014 44.017386 26.184860 1.906506 8.545239 37.602611 5.387210 0.000000 0.000000 0.000000 
0.006233 0.885257 0.264627 -1.257213 -9.269672 2.973457 9.871984 0.714634 -30.817797 -6.186484 1.003990 6.465990 7.281231 15.342363 14.681904 0.000000 0.000000 0.000000 -5.183033 0.249017 0.466643 5.500965 -0.192334 20.748082 -6.232296 -10.039899 -13.665916 0.000000 0.000000 0.000000 5.987775 -1.743132 21.876018 -5.683622 1.790456 -25.639612 1.766516 14.586784 29.310597 13.419181 -2.570590 -38.115502 0.000000 0.000000 0.000000 -22.962364 -12.006469 2.848729 -43.845550 -12.559317 -2.386671 -13.610047 -43.983424 6.873700 0.000000 0.000000 0.000000 23.892810 3.668917 3.777307 42.929099 28.603123 2.560103 5.972140 36.254291 4.211687 0.000000 0.000000 0.000000 
0.017016 0.875794 0.310482 -1.085105 -9.596892 2.438979 9.306343 0.692871 -32.716650 -7.755910 1.763534 14.060969 7.648418 15.902343 16.270045 0.000000 0.000000 0.000000 -6.748732 0.285871 2.494015 4.929953 0.083005 23.611029 -5.888756 -8.238571 -14.612090 0.000000 0.000000 0.000000 5.401227 -1.520540 20.369589 -6.239279 1.946584 -23.850815 1.830189 14.040394 29.199257 12.456770 -2.440528 -36.803949 0.000000 0.000000 0.000000 -22.396392 -13.069425 3.779514 -43.970881 -13.394327 -2.212735 -11.546309 -43.930900 6.133912 0.000000 0.000000 0.000000 24.400021 5.296556 4.578465 43.144000 28.967724 2.753710 4.377655 35.194181 3.488499 0.000000 0.000000 0.000000 
0.029987 0.874498 0.355734 -0.364359 -10.460901 1.294756 8.854859 0.656724 -32.472481 -9.903374 2.918887 19.642865 8.195494 16.622666 15.893560 0.000000 0.000000 0.000000 -8.739669 0.457825 2.339197 4.913937 0.516465 30.713770 -5.342475 -8.237089 -11.248848 0.000000 0.000000 0.000000 4.063121 -1.182871 19.619891 -5.791112 1.827804 -24.216770 2.069960 14.071960 31.162274 12.599061 -2.681773 -36.744091 0.000000 0.000000 0.000000 -22.507786 -14.047098 4.615072 -43.845062 -15.199449 -1.847643 -7.970420 -43.263529 4.753085 0.000000 0.000000 0.000000 25.199612 5.904845 4.970432 43.122367 29.768561 2.803310 2.482346 34.372577 2.843549 0.000000 0.000000 0.000000 
0.042360 0.881388 0.393872 0.321050 -11.525164 1.662712 8.041324 0.470851 -31.466969 -10.871878 3.505880 21.096637 8.426092 16.867017 14.055997 0.000000 0.000000 0.000000 -11.130960 0.680211 -3.243932 6.549148 0.696789 41.664496 -4.228752 -9.251701 -2.771790 0.000000 0.000000 0.000000 3.224126 -0.960656 18.479649 -5.760312 1.802808 -23.687645 1.206682 13.416229 30.941004 11.941895 -2.764967 -35.436365 0.000000 0.000000 0.000000 -21.900681 -15.014764 5.653975 -42.817212 -16.065707 -1.693236 -7.197185 -43.406051 4.608368 0.000000 0.000000 0.000000 25.119420 7.475721 5.448951 44.834084 29.268111 3.062490 1.631476 34.764165 2.568048 0.000000 0.000000 0.000000 
0.052162 0.892802 0.421953 -0.064250 -11.747451 1.952438 7.160094 0.128694 -29.006834 -10.984749 3.440400 19.872145 8.494806 16.998575 11.976269 0.000000 0.000000 0.000000 -11.291132 0.738393 -9.398492 8.688624 0.266388 51.537693 -5.290237 -14.505037 6.335812 0.000000 0.000000 0.000000 3.013548 -0.954800 19.812126 -6.218952 1.911954 -23.883971 0.775103 11.185560 29.852704 12.078608 -3.123374 -35.635448 0.000000 0.000000 0.000000 -21.233625 -16.200038 6.986137 -42.170018 -18.167666 -1.069173 -4.855348 -44.368359 3.976632 0.000000 0.000000 0.000000 24.315726 8.424537 5.148056 47.251149 30.008268 4.125890 1.346124 35.966767 2.502504 0.000000 0.000000 0.000000 
0.059223 0.906251 0.440881 -1.009475 -12.436493 2.575847 6.875926 0.015045 -26.215417 -10.363090 3.030406 17.480995 8.611856 17.164988 11.214710 0.000000 0.000000 0.000000 -10.381325 0.948791 -15.051207 11.242335 -0.952320 54.058651 -7.613392 -19.267705 6.681544 0.000000 0.000000 0.000000 3.270935 -1.025123 21.353964 -5.849311 1.794491 -24.445200 -0.450080 9.582487 29.579452 12.691478 -3.719101 -35.744781 0.000000 0.000000 0.000000 -19.644549 -17.181226 7.998856 -40.494158 -20.147600 -0.622775 -2.742377 -46.472836 3.452915 0.000000 0.000000 0.000000 24.117050 9.983417 5.427820 47.889178 31.454818 5.005908 2.014070 38.104175 2.793649 0.000000 0.000000 0.000000 
